<?xml version="1.0" standalone="no"?>
<!DOCTYPE svg PUBLIC "-//W3C//DTD SVG 20010904//EN"
 "http://www.w3.org/TR/2001/REC-SVG-20010904/DTD/svg10.dtd">
<svg version="1.0" xmlns="http://www.w3.org/2000/svg"
 width="626.000000pt" height="626.000000pt" viewBox="0 0 626.000000 626.000000"
 preserveAspectRatio="xMidYMid meet">
<metadata>
Created by potrace 1.15, written by Peter Selinger 2001-2017
</metadata>
<g transform="translate(0.000000,626.000000) scale(0.100000,-0.100000)"
fill="#000000" stroke="none">
<path d="M2890 6234 c-19 -3 -93 -11 -165 -20 -299 -35 -602 -121 -900 -257
-521 -236 -978 -627 -1302 -1112 -68 -102 -107 -170 -209 -358 -15 -26 -49
-105 -101 -232 -92 -225 -164 -519 -198 -814 -17 -146 -20 -487 -5 -629 37
-348 126 -685 261 -987 82 -184 270 -489 405 -660 102 -129 245 -279 374 -393
361 -321 816 -566 1270 -686 88 -23 290 -66 311 -66 5 0 9 553 9 1320 l0 1320
-242 2 -243 3 -3 424 c-2 333 0 426 10 433 7 4 117 8 244 8 l232 0 6 168 c10
232 40 428 94 606 39 127 136 334 191 406 14 19 39 54 55 77 35 52 134 155
201 208 28 22 52 43 53 48 2 4 8 7 14 7 5 0 24 11 41 24 107 80 330 171 537
217 96 22 127 24 375 23 277 0 300 -2 519 -51 l68 -15 -6 -122 c-3 -66 -13
-267 -22 -446 -8 -178 -16 -326 -18 -327 -1 -2 -45 7 -97 19 -75 17 -127 21
-254 22 -154 0 -163 -1 -230 -28 -126 -52 -201 -123 -264 -248 -59 -120 -72
-191 -78 -410 l-5 -188 378 -2 379 -3 3 -405 c1 -223 0 -415 -3 -427 l-5 -23
-370 0 -370 0 0 -1300 c0 -715 3 -1300 7 -1300 13 0 197 51 258 72 177 60 293
108 465 193 470 232 945 669 1232 1135 75 121 194 353 233 455 15 39 33 84 41
100 50 113 133 436 165 650 27 179 37 560 19 732 -33 330 -127 702 -240 948
-63 138 -89 191 -138 280 -364 658 -964 1172 -1673 1431 -183 67 -455 133
-660 160 -118 15 -566 28 -649 18z"/>
</g>
</svg>
