<?xml version="1.0" standalone="no"?>
<!DOCTYPE svg PUBLIC "-//W3C//DTD SVG 20010904//EN"
 "http://www.w3.org/TR/2001/REC-SVG-20010904/DTD/svg10.dtd">
<svg version="1.0" xmlns="http://www.w3.org/2000/svg"
 width="980.000000pt" height="980.000000pt" viewBox="0 0 980.000000 980.000000"
 preserveAspectRatio="xMidYMid meet">
<metadata>
Created by potrace 1.15, written by Peter Selinger 2001-2017
</metadata>
<g transform="translate(0.000000,980.000000) scale(0.100000,-0.100000)"
fill="#000000" stroke="none">
<path d="M4560 9789 c-1035 -75 -1998 -463 -2800 -1128 -150 -123 -501 -475
-622 -621 -881 -1068 -1270 -2403 -1098 -3765 119 -934 501 -1801 1124 -2545
98 -117 370 -393 496 -504 1328 -1166 3158 -1531 4825 -962 895 305 1700 879
2281 1627 735 946 1100 2126 1024 3314 -70 1094 -491 2109 -1216 2935 -112
128 -386 398 -509 501 -763 642 -1665 1026 -2665 1134 -174 19 -664 27 -840
14z m-61 -3876 c196 -733 359 -1334 362 -1337 2 -3 145 520 317 1162 172 642
333 1245 359 1340 l46 172 1103 0 1104 0 0 -340 0 -340 -105 0 c-81 0 -117 -5
-159 -21 -67 -25 -133 -86 -166 -154 l-25 -50 0 -1405 0 -1405 21 -46 c31 -66
87 -124 149 -154 45 -22 72 -27 169 -32 l116 -6 0 -338 0 -339 -1045 0 -1045
0 0 340 0 340 208 2 207 3 2 1490 c1 939 -2 1483 -8 1470 -5 -11 -230 -812
-499 -1780 -270 -968 -497 -1784 -506 -1812 l-15 -53 -399 0 c-220 0 -400 2
-400 4 0 5 -1009 3628 -1015 3641 -2 6 -4 -659 -4 -1477 l-1 -1488 205 0 205
0 0 -340 0 -340 -870 0 -870 0 0 340 0 340 63 0 c86 0 182 17 227 40 52 27
125 111 144 167 14 42 16 192 16 1437 l0 1391 -28 60 c-31 65 -77 112 -145
147 -35 18 -63 23 -159 26 l-118 4 0 339 0 339 1101 -2 1102 -3 356 -1332z"/>
</g>
</svg>
