<?xml version="1.0" standalone="no"?>
<!DOCTYPE svg PUBLIC "-//W3C//DTD SVG 20010904//EN"
 "http://www.w3.org/TR/2001/REC-SVG-20010904/DTD/svg10.dtd">
<svg version="1.0" xmlns="http://www.w3.org/2000/svg"
 width="626.000000pt" height="626.000000pt" viewBox="0 0 626.000000 626.000000"
 preserveAspectRatio="xMidYMid meet">
<metadata>
Created by potrace 1.15, written by Peter Selinger 2001-2017
</metadata>
<g transform="translate(0.000000,626.000000) scale(0.100000,-0.100000)"
fill="#000000" stroke="none">
<path d="M2860 6249 c-25 -5 -112 -18 -195 -29 -651 -92 -1268 -402 -1746
-879 -475 -475 -786 -1093 -878 -1741 -11 -80 -25 -175 -31 -213 -13 -87 -13
-427 0 -514 6 -38 20 -133 31 -213 67 -477 254 -937 549 -1355 174 -245 477
-548 716 -715 434 -303 878 -483 1359 -549 83 -12 175 -26 206 -31 72 -13 446
-13 518 0 31 5 123 19 205 30 482 67 940 252 1361 550 239 169 508 435 697
690 294 397 498 894 567 1380 11 80 25 175 31 213 5 37 10 153 10 257 0 104
-5 220 -10 257 -6 38 -20 133 -31 213 -60 423 -223 859 -457 1220 -493 761
-1288 1275 -2163 1399 -79 11 -174 25 -212 31 -79 12 -461 11 -527 -1z m573
-425 c428 -47 837 -196 1197 -436 119 -80 125 -85 270 -207 142 -120 245 -229
394 -416 38 -49 160 -235 196 -300 102 -185 172 -346 229 -529 26 -84 42 -150
86 -353 15 -70 35 -326 35 -453 0 -127 -20 -383 -35 -453 -2 -12 -16 -76 -30
-142 -31 -140 -108 -376 -159 -488 -20 -42 -36 -79 -36 -80 0 -2 -28 -55 -62
-118 -187 -346 -415 -614 -753 -882 -67 -54 -373 -247 -390 -247 -1 0 -55 -25
-119 -55 -216 -102 -498 -185 -761 -222 -167 -24 -563 -24 -730 0 -799 114
-1485 556 -1928 1242 -145 224 -294 585 -352 850 -14 66 -28 130 -30 142 -15
70 -35 326 -35 453 0 127 20 383 35 453 44 203 60 269 86 353 78 249 182 468
332 694 78 118 83 125 206 270 122 144 230 246 416 394 114 90 334 221 525
311 211 100 536 190 790 218 171 20 450 20 623 1z"/>
<path d="M3032 4140 c-56 -25 -1429 -1396 -1461 -1458 -38 -75 -20 -184 40
-239 56 -51 154 -68 227 -38 26 11 225 204 657 635 l620 620 615 -616 c416
-417 628 -622 655 -635 77 -36 188 -16 242 42 31 34 53 91 53 136 0 100 28 68
-723 821 -539 540 -713 708 -751 727 -60 30 -115 32 -174 5z"/>
</g>
</svg>
