<?xml version="1.0" standalone="no"?>
<!DOCTYPE svg PUBLIC "-//W3C//DTD SVG 20010904//EN"
 "http://www.w3.org/TR/2001/REC-SVG-20010904/DTD/svg10.dtd">
<svg version="1.0" xmlns="http://www.w3.org/2000/svg"
 width="626.000000pt" height="626.000000pt" viewBox="0 0 626.000000 626.000000"
 preserveAspectRatio="xMidYMid meet">
<metadata>
Created by potrace 1.15, written by Peter Selinger 2001-2017
</metadata>
<g transform="translate(0.000000,626.000000) scale(0.100000,-0.100000)"
fill="#000000" stroke="none">
<path d="M2860 6249 c-25 -5 -112 -18 -195 -29 -482 -68 -925 -247 -1359 -550
-239 -167 -542 -470 -716 -715 -295 -418 -482 -878 -549 -1355 -11 -80 -25
-175 -31 -213 -13 -87 -13 -427 0 -514 6 -38 20 -133 31 -213 92 -648 403
-1266 878 -1741 478 -477 1096 -788 1746 -878 83 -12 175 -26 206 -31 73 -13
430 -13 516 0 38 6 133 20 212 31 875 124 1670 638 2163 1399 234 361 397 797
457 1220 11 80 25 175 31 213 5 37 10 153 10 257 0 104 -5 220 -10 257 -6 38
-20 133 -31 213 -69 486 -273 983 -567 1380 -189 255 -458 521 -697 690 -421
298 -879 483 -1361 550 -82 11 -174 25 -205 30 -65 12 -464 11 -529 -1z m643
-433 c253 -36 541 -120 753 -221 64 -30 118 -55 119 -55 17 0 323 -193 390
-247 338 -268 566 -536 753 -882 34 -63 62 -116 62 -118 0 -1 16 -38 36 -80
51 -112 128 -348 159 -488 14 -66 28 -130 30 -142 15 -70 35 -326 35 -453 0
-127 -20 -383 -35 -453 -2 -12 -16 -74 -30 -138 -70 -325 -198 -624 -388 -909
-75 -113 -83 -123 -184 -245 -119 -144 -249 -268 -438 -418 -100 -80 -283
-192 -445 -273 -599 -300 -1339 -357 -1995 -154 -179 55 -335 123 -520 225
-74 41 -260 161 -310 201 -186 148 -294 250 -416 394 -123 145 -128 152 -206
270 -150 226 -254 445 -332 694 -26 84 -42 150 -86 353 -15 70 -35 326 -35
453 0 127 20 383 35 453 2 12 16 76 30 142 40 183 117 400 210 590 141 287
299 510 520 730 305 305 663 525 1074 661 207 68 311 89 621 128 76 9 490 -3
593 -18z"/>
<path d="M1665 3851 c-102 -47 -145 -173 -94 -273 32 -62 1405 -1433 1461
-1458 59 -27 114 -25 174 5 38 19 212 187 751 727 753 755 723 721 723 823 0
47 -28 111 -61 142 -58 53 -161 68 -234 34 -27 -13 -239 -218 -655 -635 l-615
-616 -620 620 c-432 431 -631 624 -657 635 -50 20 -124 19 -173 -4z"/>
</g>
</svg>
