<?xml version="1.0" standalone="no"?>
<!DOCTYPE svg PUBLIC "-//W3C//DTD SVG 20010904//EN"
 "http://www.w3.org/TR/2001/REC-SVG-20010904/DTD/svg10.dtd">
<svg version="1.0" xmlns="http://www.w3.org/2000/svg"
 width="626.000000pt" height="626.000000pt" viewBox="0 0 626.000000 626.000000"
 preserveAspectRatio="xMidYMid meet">
<metadata>
Created by potrace 1.15, written by Peter Selinger 2001-2017
</metadata>
<g transform="translate(0.000000,626.000000) scale(0.100000,-0.100000)"
fill="#000000" stroke="none">
<path d="M2880 6254 c-14 -2 -68 -9 -120 -15 -400 -46 -821 -182 -1149 -371
-46 -26 -85 -48 -87 -48 -8 0 -221 -144 -278 -188 -225 -173 -443 -391 -618
-618 -44 -57 -188 -270 -188 -278 0 -2 -22 -41 -48 -87 -47 -81 -82 -151 -124
-248 -130 -296 -191 -519 -250 -901 -17 -112 -18 -626 -1 -730 7 -41 20 -120
28 -175 56 -352 181 -690 393 -1066 164 -291 498 -666 787 -884 108 -81 288
-205 299 -205 2 0 37 -19 78 -43 75 -44 164 -89 253 -127 303 -133 521 -193
905 -252 112 -17 626 -18 730 -1 41 7 120 20 175 28 237 38 454 104 750 228
67 29 220 108 277 144 21 12 40 23 43 23 3 0 45 26 93 57 303 198 600 477 818
768 61 81 174 250 174 260 0 3 11 23 24 44 28 44 126 237 151 296 115 272 182
497 219 725 8 52 21 129 28 170 18 102 18 624 0 740 -58 381 -112 574 -247
895 -26 61 -122 251 -150 295 -14 22 -25 42 -25 45 0 11 -142 218 -208 305
-227 297 -586 616 -879 781 -240 136 -420 217 -633 287 -123 41 -352 96 -460
111 -47 7 -110 17 -140 23 -53 10 -570 21 -620 12z m1285 -1306 c154 -24 351
-122 460 -229 l50 -49 111 30 c142 38 276 89 383 146 46 24 85 44 86 44 9 0
-19 -70 -54 -136 -71 -130 -189 -264 -288 -327 -24 -15 -43 -30 -43 -33 0 -20
281 44 418 95 46 17 85 31 88 31 2 0 -17 -28 -42 -62 -72 -99 -216 -249 -312
-328 l-89 -71 -7 -177 c-7 -202 -25 -341 -67 -527 -29 -127 -87 -320 -114
-380 -7 -16 -30 -68 -50 -115 -55 -128 -147 -297 -228 -417 -304 -453 -691
-769 -1182 -966 -599 -240 -1348 -240 -1955 0 -139 55 -430 203 -430 219 0 1
78 3 173 3 196 0 298 10 447 46 184 45 376 123 535 218 81 48 175 116 175 127
0 4 -32 10 -70 14 -324 30 -630 259 -753 564 l-26 63 102 -7 c100 -6 257 8
286 25 8 6 -13 16 -60 31 -308 93 -551 349 -628 660 -22 90 -39 230 -27 230 4
0 28 -11 54 -24 90 -45 251 -86 332 -86 25 1 24 1 -10 31 -126 110 -185 177
-242 274 -50 84 -85 179 -109 293 -39 183 -10 404 77 585 10 20 22 37 26 37 5
0 37 -30 71 -67 400 -437 878 -715 1434 -833 126 -26 397 -59 408 -49 2 3 0
22 -6 44 -14 63 -12 272 5 350 42 194 114 326 260 471 160 159 330 238 576
267 45 6 146 -1 235 -15z"/>
</g>
</svg>
